<svg width="213" height="220" viewBox="0 0 213 220" fill="none" xmlns="http://www.w3.org/2000/svg">
<g opacity="0.8" filter="url(#filter0_f_167_59747)">
<path fill-rule="evenodd" clip-rule="evenodd" d="M50 81.804C60.4184 62.4276 80.721 50 103.027 50C136.152 50 163 76.8597 163 110C163 143.14 136.152 170 103.027 170C80.721 170 60.4184 157.572 50.1336 138.196V133.252C59.3499 154.232 80.0532 167.862 103.027 167.862C134.95 167.862 160.863 141.938 160.863 110C160.863 78.0624 134.95 52.1381 103.027 52.1381C80.0532 52.1381 59.2163 65.7684 50.1336 86.7483L50 81.804Z" fill="url(#paint0_linear_167_59747)"/>
</g>
<g opacity="0.8" filter="url(#filter1_f_167_59747)">
<path d="M132.546 93.0288C126.268 66.7036 94.6123 52.6724 70.0355 67.1045C68.0319 68.3072 65.0934 70.3116 59.2163 76.4586C64.0248 70.3116 67.6312 67.9063 69.6347 66.4364C78.8511 59.354 90.4716 55.2114 103.027 55.2114C118.254 55.2114 131.878 61.3584 141.896 71.2471C151.78 81.1357 157.924 94.8996 157.924 110.133C157.924 120.824 154.986 130.846 149.643 139.265C147.907 141.937 144.3 144.744 138.957 144.744C131.611 144.744 125.734 138.864 125.734 131.648C125.734 128.174 127.07 125.1 129.207 122.828C135.752 112.272 134.149 99.5767 132.546 93.0288Z" fill="url(#paint1_linear_167_59747)"/>
</g>
<g opacity="0.8" filter="url(#filter2_f_167_59747)">
<path fill-rule="evenodd" clip-rule="evenodd" d="M89.8038 78.9979C60.9527 70.0447 51.3357 93.9645 50 100.112C50.6678 94.3654 52.0035 91.4256 52.6714 89.6884C55.7435 81.6705 61.487 74.4545 69.234 69.6438C78.7175 63.7641 89.6702 62.4278 99.5544 64.9668C109.439 67.5057 118.521 73.92 124.265 83.675C126.936 88.2184 129.207 94.499 129.608 97.8398C129.741 99.1761 129.875 99.9779 129.875 101.181C129.875 107.862 124.665 113.341 118.254 113.341C111.843 113.341 106.634 107.862 106.634 101.181C106.5 100.913 106.5 100.78 106.5 100.646C104.897 90.4901 95.8144 80.8688 89.8038 78.9979Z" fill="url(#paint2_linear_167_59747)"/>
</g>
<g opacity="0.8" filter="url(#filter3_f_167_59747)">
<path fill-rule="evenodd" clip-rule="evenodd" d="M73.3748 101.047C60.5521 91.4254 51.603 103.853 51.4694 108.797C51.3358 105.056 51.7365 102.784 52.0037 101.581C53.2058 95.8352 56.2779 90.49 61.0864 86.4811C66.8299 81.5367 74.0427 79.5323 80.9883 80.2004C88.8689 80.735 94.746 86.0802 94.746 92.7617C94.746 99.4432 89.2696 105.056 82.4576 105.056C78.8512 105.056 75.6455 103.586 73.3748 101.047Z" fill="url(#paint3_linear_167_59747)"/>
</g>
<path fill-rule="evenodd" clip-rule="evenodd" d="M50 81.804C60.4184 62.4276 80.721 50 103.027 50C136.152 50 163 76.8597 163 110C163 143.14 136.152 170 103.027 170C80.721 170 60.4184 157.572 50.1336 138.196V133.252C59.3499 154.232 80.0532 167.862 103.027 167.862C134.95 167.862 160.863 141.938 160.863 110C160.863 78.0624 134.95 52.1381 103.027 52.1381C80.0532 52.1381 59.2163 65.7684 50.1336 86.7483L50 81.804Z" fill="url(#paint4_linear_167_59747)"/>
<path d="M132.546 93.0288C126.268 66.7036 94.6123 52.6724 70.0355 67.1045C68.0319 68.3072 65.0934 70.3116 59.2163 76.4586C64.0248 70.3116 67.6312 67.9063 69.6347 66.4364C78.8511 59.354 90.4716 55.2114 103.027 55.2114C118.254 55.2114 131.878 61.3584 141.896 71.2471C151.78 81.1357 157.924 94.8996 157.924 110.133C157.924 120.824 154.986 130.846 149.643 139.265C147.907 141.937 144.3 144.744 138.957 144.744C131.611 144.744 125.734 138.864 125.734 131.648C125.734 128.174 127.07 125.1 129.207 122.828C135.752 112.272 134.149 99.5767 132.546 93.0288Z" fill="url(#paint5_linear_167_59747)"/>
<path fill-rule="evenodd" clip-rule="evenodd" d="M89.8038 78.9979C60.9527 70.0447 51.3357 93.9645 50 100.112C50.6678 94.3654 52.0035 91.4256 52.6714 89.6884C55.7435 81.6705 61.487 74.4545 69.234 69.6438C78.7175 63.7641 89.6702 62.4278 99.5544 64.9668C109.439 67.5057 118.521 73.92 124.265 83.675C126.936 88.2184 129.207 94.499 129.608 97.8398C129.741 99.1761 129.875 99.9779 129.875 101.181C129.875 107.862 124.665 113.341 118.254 113.341C111.843 113.341 106.634 107.862 106.634 101.181C106.5 100.913 106.5 100.78 106.5 100.646C104.897 90.4901 95.8144 80.8688 89.8038 78.9979Z" fill="url(#paint6_linear_167_59747)"/>
<path fill-rule="evenodd" clip-rule="evenodd" d="M73.3748 101.047C60.5521 91.4254 51.603 103.853 51.4694 108.797C51.3358 105.056 51.7365 102.784 52.0037 101.581C53.2058 95.8352 56.2779 90.49 61.0864 86.4811C66.8299 81.5367 74.0427 79.5323 80.9883 80.2004C88.8689 80.735 94.746 86.0802 94.746 92.7617C94.746 99.4432 89.2696 105.056 82.4576 105.056C78.8512 105.056 75.6455 103.586 73.3748 101.047Z" fill="url(#paint7_linear_167_59747)"/>
<defs>
<filter id="filter0_f_167_59747" x="0" y="0" width="213" height="220" filterUnits="userSpaceOnUse" color-interpolation-filters="sRGB">
<feFlood flood-opacity="0" result="BackgroundImageFix"/>
<feBlend mode="normal" in="SourceGraphic" in2="BackgroundImageFix" result="shape"/>
<feGaussianBlur stdDeviation="25" result="effect1_foregroundBlur_167_59747"/>
</filter>
<filter id="filter1_f_167_59747" x="9.21631" y="5.21143" width="198.708" height="189.532" filterUnits="userSpaceOnUse" color-interpolation-filters="sRGB">
<feFlood flood-opacity="0" result="BackgroundImageFix"/>
<feBlend mode="normal" in="SourceGraphic" in2="BackgroundImageFix" result="shape"/>
<feGaussianBlur stdDeviation="25" result="effect1_foregroundBlur_167_59747"/>
</filter>
<filter id="filter2_f_167_59747" x="0" y="13.7417" width="179.875" height="149.599" filterUnits="userSpaceOnUse" color-interpolation-filters="sRGB">
<feFlood flood-opacity="0" result="BackgroundImageFix"/>
<feBlend mode="normal" in="SourceGraphic" in2="BackgroundImageFix" result="shape"/>
<feGaussianBlur stdDeviation="25" result="effect1_foregroundBlur_167_59747"/>
</filter>
<filter id="filter3_f_167_59747" x="1.44287" y="30.0757" width="143.303" height="128.722" filterUnits="userSpaceOnUse" color-interpolation-filters="sRGB">
<feFlood flood-opacity="0" result="BackgroundImageFix"/>
<feBlend mode="normal" in="SourceGraphic" in2="BackgroundImageFix" result="shape"/>
<feGaussianBlur stdDeviation="25" result="effect1_foregroundBlur_167_59747"/>
</filter>
<linearGradient id="paint0_linear_167_59747" x1="55.5962" y1="93.7886" x2="162.439" y2="130.258" gradientUnits="userSpaceOnUse">
<stop stop-color="#FF934F"/>
<stop offset="0.0843218" stop-color="#F98B60"/>
<stop offset="0.5315" stop-color="#DB65B5"/>
<stop offset="0.847" stop-color="#C74CEA"/>
<stop offset="1" stop-color="#C043FF"/>
</linearGradient>
<linearGradient id="paint1_linear_167_59747" x1="68.3125" y1="80.2957" x2="160.65" y2="112.337" gradientUnits="userSpaceOnUse">
<stop stop-color="#FF934F"/>
<stop offset="0.0843218" stop-color="#F98B60"/>
<stop offset="0.5315" stop-color="#DB65B5"/>
<stop offset="0.847" stop-color="#C74CEA"/>
<stop offset="1" stop-color="#C043FF"/>
</linearGradient>
<linearGradient id="paint2_linear_167_59747" x1="50" y1="88.5731" x2="129.909" y2="88.5731" gradientUnits="userSpaceOnUse">
<stop stop-color="#FF934F"/>
<stop offset="0.0843218" stop-color="#F98B60"/>
<stop offset="0.5315" stop-color="#DB65B5"/>
<stop offset="0.847" stop-color="#C74CEA"/>
<stop offset="1" stop-color="#C043FF"/>
</linearGradient>
<linearGradient id="paint3_linear_167_59747" x1="51.4313" y1="94.3723" x2="94.8008" y2="94.3723" gradientUnits="userSpaceOnUse">
<stop stop-color="#FF934F"/>
<stop offset="0.0843218" stop-color="#F98B60"/>
<stop offset="0.5315" stop-color="#DB65B5"/>
<stop offset="0.847" stop-color="#C74CEA"/>
<stop offset="1" stop-color="#C043FF"/>
</linearGradient>
<linearGradient id="paint4_linear_167_59747" x1="55.5962" y1="93.7886" x2="162.439" y2="130.258" gradientUnits="userSpaceOnUse">
<stop stop-color="#FF934F"/>
<stop offset="0.0843218" stop-color="#F98B60"/>
<stop offset="0.5315" stop-color="#DB65B5"/>
<stop offset="0.847" stop-color="#C74CEA"/>
<stop offset="1" stop-color="#C043FF"/>
</linearGradient>
<linearGradient id="paint5_linear_167_59747" x1="68.3125" y1="80.2957" x2="160.65" y2="112.337" gradientUnits="userSpaceOnUse">
<stop stop-color="#FF934F"/>
<stop offset="0.0843218" stop-color="#F98B60"/>
<stop offset="0.5315" stop-color="#DB65B5"/>
<stop offset="0.847" stop-color="#C74CEA"/>
<stop offset="1" stop-color="#C043FF"/>
</linearGradient>
<linearGradient id="paint6_linear_167_59747" x1="50" y1="88.5731" x2="129.909" y2="88.5731" gradientUnits="userSpaceOnUse">
<stop stop-color="#FF934F"/>
<stop offset="0.0843218" stop-color="#F98B60"/>
<stop offset="0.5315" stop-color="#DB65B5"/>
<stop offset="0.847" stop-color="#C74CEA"/>
<stop offset="1" stop-color="#C043FF"/>
</linearGradient>
<linearGradient id="paint7_linear_167_59747" x1="51.4313" y1="94.3723" x2="94.8008" y2="94.3723" gradientUnits="userSpaceOnUse">
<stop stop-color="#FF934F"/>
<stop offset="0.0843218" stop-color="#F98B60"/>
<stop offset="0.5315" stop-color="#DB65B5"/>
<stop offset="0.847" stop-color="#C74CEA"/>
<stop offset="1" stop-color="#C043FF"/>
</linearGradient>
</defs>
</svg>
